<?xml version="1.0" encoding="utf-8"?>
<!-- Generator: Adobe Illustrator 25.2.3, SVG Export Plug-In . SVG Version: 6.00 Build 0)  -->
<svg version="1.1" id="Lager_1" xmlns="http://www.w3.org/2000/svg" xmlns:xlink="http://www.w3.org/1999/xlink" x="0px" y="0px"
	 viewBox="0 0 800 544" style="enable-background:new 0 0 800 544;" xml:space="preserve">
<style type="text/css">
	.st0{fill:#999999;}
	.st1{fill:#404040;}
	.st2{fill:#FFFFFF;stroke:#404040;stroke-width:4;stroke-linecap:round;stroke-linejoin:round;stroke-miterlimit:10;}
	.st3{fill:none;stroke:#404040;stroke-width:4;stroke-miterlimit:10;}
	.st4{fill:#B3E3FF;stroke:#404040;stroke-width:4;stroke-linejoin:round;stroke-miterlimit:10;}
	.st5{fill:#FFFFFF;stroke:#404040;stroke-width:4;stroke-miterlimit:10;}
	.st6{fill:#4ED1A1;stroke:#404040;stroke-width:4;stroke-miterlimit:10;}
	.st7{fill:none;stroke:#404040;stroke-width:4;stroke-linecap:round;stroke-linejoin:round;stroke-miterlimit:10;}
	.st8{fill:#4ED1A1;stroke:#404040;stroke-width:4;stroke-linecap:round;stroke-linejoin:round;stroke-miterlimit:10;}
</style>
<path class="st0" d="M233,7.5c-0.1-0.8-0.8-1.8-2.2-1.8c-1.2,0-2.1,0.8-2.1,1.8c0,0.8,0.5,1.4,1.4,1.5l1.6,0.3
	c1.8,0.4,2.8,1.5,2.8,3c0,1.6-1.4,3.1-3.7,3.1c-2.6,0-3.8-1.6-4-3.2l1.4-0.4c0.1,1.2,0.9,2.3,2.5,2.3c1.5,0,2.2-0.8,2.2-1.7
	c0-0.8-0.5-1.4-1.6-1.6l-1.5-0.3c-1.5-0.3-2.6-1.3-2.6-2.9c0-1.7,1.5-3.2,3.5-3.2c2.4,0,3.4,1.5,3.6,2.6L233,7.5L233,7.5z M242,18.1
	v-3.9c-0.4,0.7-1.2,1.2-2.2,1.2c-2.1,0-3.4-1.7-3.4-3.8c0-2,1.3-3.8,3.4-3.8c1.2,0,2,0.6,2.3,1.3v-1h1.4v10.1H242V18.1z M239.9,14.2
	c1.3,0,2.1-1.1,2.1-2.6s-0.9-2.5-2.1-2.5c-1.3,0-2.1,1-2.1,2.5S238.6,14.2,239.9,14.2z M249,15.5c-1.7,0-2.7-1.3-2.7-2.9V8.1h1.4
	v4.3c0,1,0.4,1.9,1.6,1.9c1.1,0,1.7-0.8,1.7-1.8V8.1h1.4V14c0,0.6,0,1.1,0.1,1.3h-1.4c0-0.2-0.1-0.6-0.1-0.9
	C250.7,15.2,249.8,15.5,249,15.5z M257.3,11.2l1.9-0.3c0.4-0.1,0.6-0.3,0.6-0.5c0-0.7-0.5-1.3-1.6-1.3c-1,0-1.5,0.6-1.6,1.5
	l-1.4-0.3c0.2-1.4,1.4-2.3,3-2.3c2.2,0,3,1.2,3,2.6v3.6c0,0.6,0.1,1,0.1,1.2H260c0-0.2-0.1-0.5-0.1-1c-0.3,0.5-1,1.2-2.3,1.2
	c-1.5,0-2.4-1-2.4-2.2C255.2,12.1,256.1,11.3,257.3,11.2L257.3,11.2z M259.8,12.2v-0.3l-2.2,0.3c-0.6,0.1-1.1,0.4-1.1,1.1
	c0,0.5,0.4,1,1.2,1C258.9,14.3,259.8,13.8,259.8,12.2z M264.8,13c0.1,0.8,0.7,1.3,1.7,1.3c0.8,0,1.2-0.4,1.2-1
	c0-0.4-0.3-0.8-0.9-0.9l-1.2-0.3c-1.1-0.2-1.8-1-1.8-2c0-1.2,1.2-2.3,2.6-2.3c2,0,2.6,1.3,2.7,1.9l-1.2,0.5
	c-0.1-0.4-0.4-1.2-1.5-1.2c-0.7,0-1.2,0.5-1.2,1c0,0.4,0.3,0.8,0.8,0.9l1.2,0.3c1.3,0.3,2,1.1,2,2.1s-0.9,2.2-2.6,2.2
	c-2,0-2.8-1.3-2.9-2.1L264.8,13L264.8,13z M273.1,15.3h-1.4V4.4h1.4v4.5c0.5-0.8,1.4-1.1,2.2-1.1c1.7,0,2.6,1.2,2.6,2.9v4.6h-1.4V11
	c0-1-0.4-1.8-1.7-1.8c-1.1,0-1.6,0.8-1.7,1.9C273.1,11.1,273.1,15.3,273.1,15.3z M281.6,4.3c0.6,0,1,0.4,1,1s-0.4,1-1,1s-1-0.5-1-1
	S281,4.3,281.6,4.3z M280.9,15.3V8.1h1.4v7.2H280.9z M286.9,15.3h-1.4V8.1h1.4v1c0.5-0.9,1.4-1.2,2.2-1.2c1.7,0,2.6,1.2,2.6,2.9v4.6
	h-1.4v-4.3c0-1-0.4-1.8-1.7-1.8c-1.1,0-1.7,0.9-1.7,2V15.3z M295.5,15.4c0.1,1,0.9,1.8,2,1.8c1.5,0,2.2-0.8,2.2-2.3v-1
	c-0.3,0.7-1.1,1.2-2.2,1.2c-1.9,0-3.3-1.5-3.3-3.5c0-1.9,1.3-3.5,3.3-3.5c1.1,0,1.9,0.4,2.2,1.1v-1h1.4v6.7c0,1.8-0.9,3.6-3.6,3.6
	c-1.8,0-3.1-1.1-3.3-2.7C294.2,15.8,295.5,15.4,295.5,15.4z M299.7,11.4c0-1.4-0.8-2.3-2.1-2.3c-1.2,0-2.1,0.9-2.1,2.3
	s0.8,2.3,2.1,2.3S299.7,12.8,299.7,11.4z M310.3,11.2l1.9-0.3c0.4-0.1,0.6-0.3,0.6-0.5c0-0.7-0.5-1.3-1.6-1.3c-1,0-1.5,0.6-1.6,1.5
	l-1.4-0.3c0.2-1.4,1.4-2.3,3-2.3c2.2,0,3,1.2,3,2.6v3.6c0,0.6,0.1,1,0.1,1.2h-1.4c0-0.2-0.1-0.5-0.1-1c-0.3,0.5-1,1.2-2.3,1.2
	c-1.5,0-2.4-1-2.4-2.2C308.1,12.1,309,11.3,310.3,11.2L310.3,11.2z M312.8,12.2v-0.3l-2.2,0.3c-0.6,0.1-1.1,0.4-1.1,1.1
	c0,0.5,0.4,1,1.2,1C311.9,14.3,312.8,13.8,312.8,12.2z M322.5,11.7c0,1.6,1,2.5,2.2,2.5c1.3,0,1.8-0.9,2-1.5l1.2,0.5
	c-0.3,1-1.4,2.2-3.3,2.2c-2.1,0-3.6-1.6-3.6-3.8s1.6-3.8,3.6-3.8c1.9,0,2.9,1.2,3.2,2.3l-1.3,0.5c-0.2-0.7-0.7-1.5-1.9-1.5
	C323.5,9.1,322.5,10,322.5,11.7L322.5,11.7z M337.1,11.7c0,2.2-1.5,3.8-3.7,3.8s-3.7-1.6-3.7-3.8s1.5-3.8,3.7-3.8
	S337.1,9.5,337.1,11.7z M335.6,11.7c0-1.7-1.1-2.6-2.2-2.6s-2.2,0.9-2.2,2.6s1,2.6,2.2,2.6S335.6,13.3,335.6,11.7z M339.6,15.3V8.1
	h1.3v1c0.4-0.8,1.4-1.2,2.2-1.2c0.9,0,1.8,0.4,2.2,1.4c0.6-1,1.5-1.4,2.4-1.4c1.3,0,2.5,0.9,2.5,2.7v4.7h-1.4v-4.5
	c0-0.9-0.5-1.6-1.5-1.6s-1.7,0.8-1.7,1.8v4.4h-1.4v-4.5c0-0.9-0.4-1.6-1.5-1.6c-1,0-1.7,0.8-1.7,1.8v4.3h-1.4V15.3z M353.2,15.3V8.1
	h1.3v1c0.4-0.8,1.4-1.2,2.2-1.2c0.9,0,1.8,0.4,2.2,1.4c0.6-1,1.5-1.4,2.4-1.4c1.3,0,2.5,0.9,2.5,2.7v4.7h-1.4v-4.5
	c0-0.9-0.5-1.6-1.5-1.6s-1.7,0.8-1.7,1.8v4.4h-1.4v-4.5c0-0.9-0.4-1.6-1.5-1.6c-1,0-1.7,0.8-1.7,1.8v4.3h-1.4V15.3z M367.5,4.3
	c0.6,0,1,0.4,1,1s-0.4,1-1,1s-1-0.5-1-1S366.9,4.3,367.5,4.3z M366.8,15.3V8.1h1.4v7.2H366.8z M373.2,8.1h1.6v1.3h-1.6v3.8
	c0,0.7,0.3,1,1,1c0.2,0,0.4,0,0.6-0.1v1.2c-0.1,0-0.5,0.1-1,0.1c-1.2,0-2-0.8-2-2.1v-4h-1.4V8.1h0.4c0.8,0,1.1-0.5,1.1-1.1V5.8h1.3
	V8.1z M387.5,8.1l1.9,5.4l1.6-5.4h1.5l-2.3,7.2h-1.5l-1.9-5.5l-1.9,5.5h-1.5L381,8.1h1.5l1.6,5.4l1.9-5.4L387.5,8.1L387.5,8.1z
	 M395.3,4.3c0.6,0,1,0.4,1,1s-0.4,1-1,1s-1-0.5-1-1S394.7,4.3,395.3,4.3z M394.6,15.3V8.1h1.4v7.2H394.6z M401,8.1h1.6v1.3H401v3.8
	c0,0.7,0.3,1,1,1c0.2,0,0.4,0,0.6-0.1v1.2c-0.1,0-0.5,0.1-1,0.1c-1.2,0-2-0.8-2-2.1v-4h-1.4V8.1h0.4c0.8,0,1.1-0.5,1.1-1.1V5.8h1.3
	V8.1z M406.6,15.3h-1.4V4.4h1.4v4.5c0.5-0.8,1.4-1.1,2.2-1.1c1.7,0,2.6,1.2,2.6,2.9v4.6H410V11c0-1-0.4-1.8-1.7-1.8
	c-1.1,0-1.6,0.8-1.7,1.9C406.6,11.1,406.6,15.3,406.6,15.3z M420.6,11.2l1.9-0.3c0.4-0.1,0.6-0.3,0.6-0.5c0-0.7-0.5-1.3-1.6-1.3
	c-1,0-1.5,0.6-1.6,1.5l-1.4-0.3c0.2-1.4,1.4-2.3,3-2.3c2.2,0,3,1.2,3,2.6v3.6c0,0.6,0.1,1,0.1,1.2h-1.4c0-0.2-0.1-0.5-0.1-1
	c-0.3,0.5-1,1.2-2.3,1.2c-1.5,0-2.4-1-2.4-2.2C418.4,12.1,419.4,11.3,420.6,11.2L420.6,11.2z M423.1,12.2v-0.3l-2.2,0.3
	c-0.6,0.1-1,0.4-1,1.1c0,0.5,0.4,1,1.2,1C422.2,14.3,423.1,13.8,423.1,12.2z M428.9,15.3h-1.4V8.1h1.4v1c0.5-0.9,1.4-1.2,2.2-1.2
	c1.7,0,2.6,1.2,2.6,2.9v4.6h-1.4v-4.3c0-1-0.4-1.8-1.7-1.8c-1.1,0-1.7,0.9-1.7,2V15.3z M441.8,4.3c0.6,0,1,0.4,1,1s-0.4,1-1,1
	s-1-0.5-1-1S441.3,4.3,441.8,4.3z M441.2,15.3V8.1h1.4v7.2H441.2z M447.1,15.3h-1.4V8.1h1.4v1c0.5-0.9,1.4-1.2,2.2-1.2
	c1.7,0,2.6,1.2,2.6,2.9v4.6h-1.4v-4.3c0-1-0.4-1.8-1.7-1.8c-1.1,0-1.7,0.9-1.7,2V15.3z M456.8,8.1h1.6v1.3h-1.6v3.8c0,0.7,0.3,1,1,1
	c0.2,0,0.4,0,0.6-0.1v1.2c-0.1,0-0.5,0.1-1,0.1c-1.2,0-2-0.8-2-2.1v-4H454V8.1h0.4c0.8,0,1.1-0.5,1.1-1.1V5.8h1.3V8.1z M467.2,13.2
	c-0.4,1.3-1.6,2.3-3.2,2.3c-1.9,0-3.6-1.4-3.6-3.9c0-2.3,1.6-3.8,3.4-3.8c2.2,0,3.5,1.5,3.5,3.8V12h-5.4c0,1.3,1,2.2,2.2,2.2
	s1.8-0.6,2-1.5C466.1,12.7,467.2,13.2,467.2,13.2z M465.7,10.9c0-1-0.7-1.8-2-1.8c-1.2,0-1.9,0.9-2,1.8H465.7z M473.8,9.5h-0.6
	c-1.2,0-2,0.6-2,2.2v3.6h-1.4V8.1h1.4v1.3c0.5-1.1,1.4-1.4,2.2-1.4h0.5v1.5L473.8,9.5z M477.8,11.2l1.9-0.3c0.4-0.1,0.6-0.3,0.6-0.5
	c0-0.7-0.5-1.3-1.6-1.3c-1,0-1.5,0.6-1.6,1.5l-1.4-0.3c0.2-1.4,1.4-2.3,3-2.3c2.2,0,3,1.2,3,2.6v3.6c0,0.6,0.1,1,0.1,1.2h-1.4
	c0-0.2-0.1-0.5-0.1-1c-0.3,0.5-1,1.2-2.3,1.2c-1.5,0-2.4-1-2.4-2.2C475.6,12.1,476.5,11.3,477.8,11.2L477.8,11.2z M480.3,12.2v-0.3
	l-2.2,0.3c-0.6,0.1-1,0.4-1,1.1c0,0.5,0.4,1,1.2,1C479.3,14.3,480.3,13.8,480.3,12.2z M485.4,11.7c0,1.6,1,2.5,2.2,2.5
	c1.3,0,1.8-0.9,2-1.5l1.2,0.5c-0.3,1-1.4,2.2-3.3,2.2c-2.1,0-3.6-1.6-3.6-3.8s1.6-3.8,3.6-3.8c1.9,0,2.9,1.2,3.2,2.3l-1.3,0.5
	c-0.2-0.7-0.7-1.5-1.9-1.5C486.5,9.1,485.4,10,485.4,11.7L485.4,11.7z M495.2,8.1h1.6v1.3h-1.6v3.8c0,0.7,0.3,1,1,1
	c0.2,0,0.4,0,0.6-0.1v1.2c-0.1,0-0.5,0.1-1,0.1c-1.2,0-2-0.8-2-2.1v-4h-1.4V8.1h0.4c0.8,0,1.1-0.5,1.1-1.1V5.8h1.3
	C495.2,5.8,495.2,8.1,495.2,8.1z M500.1,4.3c0.6,0,1,0.4,1,1s-0.4,1-1,1s-1-0.5-1-1S499.5,4.3,500.1,4.3z M499.4,15.3V8.1h1.4v7.2
	H499.4z M507.2,15.3h-1.4l-2.9-7.2h1.6l2.1,5.6l2.1-5.6h1.5L507.2,15.3L507.2,15.3z M518.3,13.2c-0.4,1.3-1.6,2.3-3.2,2.3
	c-1.9,0-3.6-1.4-3.6-3.9c0-2.3,1.6-3.8,3.4-3.8c2.2,0,3.5,1.5,3.5,3.8V12H513c0,1.3,1,2.2,2.2,2.2s1.8-0.6,2-1.5L518.3,13.2
	L518.3,13.2z M516.8,10.9c0-1-0.7-1.8-2-1.8c-1.2,0-1.9,0.9-2,1.8H516.8z M529.4,9.5h-0.6c-1.2,0-2,0.6-2,2.2v3.6h-1.4V8.1h1.4v1.3
	c0.5-1.1,1.4-1.4,2.2-1.4h0.5v1.5L529.4,9.5z M537.8,13.2c-0.4,1.3-1.6,2.3-3.2,2.3c-1.9,0-3.6-1.4-3.6-3.9c0-2.3,1.6-3.8,3.4-3.8
	c2.2,0,3.5,1.5,3.5,3.8V12h-5.4c0,1.3,1,2.2,2.2,2.2s1.8-0.6,2-1.5C536.7,12.7,537.8,13.2,537.8,13.2z M536.4,10.9
	c0-1-0.7-1.8-2-1.8c-1.2,0-1.9,0.9-2,1.8H536.4z M540.4,15.3V4.4h1.4v4.7c0.3-0.6,1.2-1.2,2.4-1.2c2.2,0,3.3,1.7,3.3,3.8
	s-1.2,3.8-3.4,3.8c-1.1,0-1.9-0.5-2.3-1.2v1C541.8,15.3,540.4,15.3,540.4,15.3z M543.9,9.1c-1.2,0-2.1,1-2.1,2.5
	c0,1.6,0.9,2.6,2.1,2.6c1.3,0,2.1-1,2.1-2.6C546.1,10.1,545.3,9.1,543.9,9.1z M551.8,11.2l1.9-0.3c0.4-0.1,0.6-0.3,0.6-0.5
	c0-0.7-0.5-1.3-1.6-1.3c-1,0-1.5,0.6-1.6,1.5l-1.4-0.3c0.2-1.4,1.4-2.3,3-2.3c2.2,0,3,1.2,3,2.6v3.6c0,0.6,0.1,1,0.1,1.2h-1.4
	c0-0.2-0.1-0.5-0.1-1c-0.3,0.5-1,1.2-2.3,1.2c-1.5,0-2.4-1-2.4-2.2C549.6,12.1,550.6,11.3,551.8,11.2z M554.3,12.2v-0.3l-2.2,0.3
	c-0.6,0.1-1.1,0.4-1.1,1.1c0,0.5,0.4,1,1.2,1C553.4,14.3,554.3,13.8,554.3,12.2z M559.3,13c0.1,0.8,0.7,1.3,1.7,1.3
	c0.8,0,1.2-0.4,1.2-1c0-0.4-0.3-0.8-0.9-0.9l-1.2-0.3c-1.1-0.2-1.8-1-1.8-2c0-1.2,1.2-2.3,2.6-2.3c2,0,2.6,1.3,2.7,1.9l-1.2,0.5
	C562.3,9.8,562,9,560.9,9c-0.7,0-1.2,0.5-1.2,1c0,0.4,0.3,0.8,0.8,0.9l1.2,0.3c1.3,0.3,2,1.1,2,2.1s-0.9,2.2-2.6,2.2
	c-2,0-2.8-1.3-2.9-2.1L559.3,13L559.3,13z M572.4,13.2c-0.4,1.3-1.6,2.3-3.2,2.3c-1.9,0-3.6-1.4-3.6-3.9c0-2.3,1.6-3.8,3.4-3.8
	c2.2,0,3.5,1.5,3.5,3.8V12H567c0,1.3,1,2.2,2.2,2.2s1.8-0.6,2-1.5L572.4,13.2L572.4,13.2z M571,10.9c0-1-0.7-1.8-2-1.8
	c-1.2,0-1.9,0.9-2,1.8H571z"/>
<path class="st1" d="M350.8,521.5c2,0,3.2,1.2,3.2,2.9c0,1.1-0.7,2-1.6,2.3c1.2,0.3,1.9,1.4,1.9,2.6c0,1.7-1.3,2.9-3.3,2.9h-3.7
	v-10.6h3.5V521.5z M350.6,526.2c1.2,0,1.9-0.7,1.9-1.7s-0.7-1.7-1.9-1.7h-1.8v3.4H350.6z M350.8,530.9c1.2,0,2-0.7,2-1.7
	s-0.6-1.7-1.9-1.7h-2.1v3.4H350.8z M360.9,526.4h-0.6c-1.2,0-2,0.6-2,2.2v3.6h-1.4V525h1.4v1.3c0.5-1.1,1.4-1.4,2.2-1.4h0.5v1.5
	L360.9,526.4z M364.9,528l1.9-0.3c0.4-0.1,0.6-0.3,0.6-0.5c0-0.7-0.5-1.3-1.6-1.3c-1,0-1.5,0.6-1.6,1.5l-1.4-0.3
	c0.2-1.4,1.4-2.3,3-2.3c2.2,0,3,1.2,3,2.6v3.6c0,0.6,0.1,1,0.1,1.2h-1.4c0-0.2-0.1-0.5-0.1-1c-0.3,0.5-1,1.2-2.3,1.2
	c-1.5,0-2.4-1-2.4-2.2C362.7,528.9,363.6,528.2,364.9,528L364.9,528z M367.4,529.1v-0.3l-2.2,0.3c-0.6,0.1-1.1,0.4-1.1,1.1
	c0,0.5,0.4,1,1.2,1C366.5,531.2,367.4,530.6,367.4,529.1z M373.1,532.2h-1.4V525h1.4v1c0.5-0.9,1.4-1.2,2.2-1.2
	c1.7,0,2.6,1.2,2.6,2.8v4.6h-1.4v-4.3c0-1-0.4-1.8-1.7-1.8c-1.1,0-1.7,0.9-1.7,2V532.2L373.1,532.2z M386,531.1
	c-0.3,0.7-1.1,1.3-2.2,1.3c-2.1,0-3.4-1.7-3.4-3.8c0-2,1.4-3.8,3.4-3.8c1.3,0,2,0.6,2.2,1.2v-4.7h1.4v9.5c0,0.7,0.1,1.2,0.1,1.3H386
	c0-0.2-0.1-0.5-0.1-1H386z M383.9,531.1c1.3,0,2.1-1.1,2.1-2.6s-0.8-2.5-2.1-2.5s-2.1,1-2.1,2.5S382.5,531.1,383.9,531.1z
	 M402.4,532.2l-5.7-8.7v8.7h-1.5v-10.6h2l5.3,8.2v-8.2h1.5v10.6H402.4L402.4,532.2z M413.5,530.1c-0.4,1.3-1.6,2.3-3.2,2.3
	c-1.9,0-3.6-1.4-3.6-3.9c0-2.3,1.6-3.8,3.4-3.8c2.2,0,3.5,1.5,3.5,3.8v0.5h-5.4c0,1.3,1,2.2,2.2,2.2s1.8-0.6,2-1.5L413.5,530.1z
	 M412,527.8c0-1-0.7-1.8-2-1.8c-1.2,0-1.9,0.9-2,1.8H412z M421.5,524.9l1.9,5.4l1.6-5.4h1.5l-2.3,7.2h-1.5l-1.9-5.5l-1.9,5.5h-1.5
	l-2.4-7.2h1.5l1.6,5.4l1.9-5.4H421.5L421.5,524.9z M432.6,526.8c0-3.6,2.6-5.5,5.3-5.5c2.4,0,4.1,1.3,4.7,3.4l-1.4,0.5
	c-0.4-1.6-1.6-2.5-3.3-2.5c-1.9,0-3.8,1.4-3.8,4.2s1.8,4.2,3.8,4.2c1.8,0,3-1.1,3.4-2.5l1.3,0.5c-0.6,2-2.2,3.4-4.7,3.4
	C435.1,532.4,432.6,530.4,432.6,526.8L432.6,526.8z M451.6,528.5c0,2.2-1.5,3.8-3.7,3.8s-3.7-1.6-3.7-3.8s1.5-3.8,3.7-3.8
	S451.6,526.4,451.6,528.5z M450.2,528.5c0-1.7-1.1-2.6-2.2-2.6s-2.2,0.9-2.2,2.6c0,1.7,1,2.6,2.2,2.6S450.2,530.2,450.2,528.5z
	 M454.2,532.2V525h1.3v1c0.4-0.8,1.4-1.2,2.2-1.2c0.9,0,1.8,0.4,2.2,1.4c0.6-1,1.5-1.4,2.4-1.4c1.3,0,2.5,0.9,2.5,2.7v4.7h-1.4v-4.5
	c0-0.9-0.5-1.6-1.5-1.6s-1.7,0.8-1.7,1.8v4.4h-1.4v-4.5c0-0.9-0.4-1.6-1.5-1.6c-1,0-1.7,0.8-1.7,1.8v4.3h-1.4V532.2z M467.8,532.2
	V525h1.3v1c0.4-0.8,1.4-1.2,2.2-1.2c0.9,0,1.8,0.4,2.2,1.4c0.6-1,1.5-1.4,2.4-1.4c1.3,0,2.5,0.9,2.5,2.7v4.7H477v-4.5
	c0-0.9-0.5-1.6-1.5-1.6s-1.7,0.8-1.7,1.8v4.4h-1.4v-4.5c0-0.9-0.4-1.6-1.5-1.6c-1,0-1.7,0.8-1.7,1.8v4.3h-1.4V532.2z M482.1,521.2
	c0.6,0,1,0.5,1,1c0,0.6-0.4,1-1,1s-1-0.5-1-1C481.1,521.6,481.5,521.2,482.1,521.2z M481.4,532.2V525h1.4v7.2H481.4z M487.8,524.9
	h1.6v1.3h-1.6v3.8c0,0.7,0.3,1,1,1c0.2,0,0.4,0,0.6-0.1v1.2c-0.1,0-0.5,0.1-1,0.1c-1.2,0-2-0.8-2-2.1v-4H485v-1.3h0.4
	c0.8,0,1.1-0.5,1.1-1.1v-1.2h1.3V524.9L487.8,524.9z"/>
<path class="st2" d="M315.4,526.7h13 M317.3,522.1l9.2,9.2 M326.5,522.1l-9.2,9.2 M321.9,520.2v13"/>
<path class="st3" d="M477.1,269.9c0-22.6,18.4-41,41-41 M477.1,269.9c0,22.6-18.4,41-41,41H124.9"/>
<circle class="st4" cx="392.7" cy="310.9" r="21"/>
<circle class="st4" cx="296.5" cy="310.9" r="21"/>
<circle class="st5" cx="200.2" cy="310.9" r="21"/>
<circle class="st5" cx="103.9" cy="310.9" r="21"/>
<path class="st3" d="M688.1,228.9h-170"/>
<circle class="st6" cx="667.1" cy="228.9" r="21"/>
<circle class="st6" cx="571.1" cy="228.9" r="21"/>
<path class="st2" d="M577.6,228.9h-13 M575.7,233.5l-9.2-9.2 M566.5,233.5l9.2-9.2 M571.1,235.4v-13 M673.6,228.9h-13 M671.7,233.5
	l-9.2-9.2 M662.5,233.5l9.2-9.2 M667.1,235.4v-13"/>
<path class="st4" d="M342.7,407.6h100v50h-100V407.6z"/>
<path class="st7" d="M392.7,361.1v23.5 M381.9,369.8l10.8-10.9l10.9,10.9"/>
<path class="st8" d="M617.1,88.2h100v50h-100V88.2z"/>
<path class="st1" d="M640.3,119.2v-10.6h6.5v1.4h-5v3.4h4.5v1.4h-4.5v4.5h-1.5V119.2z M654.9,117.1c-0.4,1.3-1.6,2.3-3.2,2.3
	c-1.9,0-3.6-1.4-3.6-3.9c0-2.3,1.6-3.8,3.4-3.8c2.2,0,3.5,1.5,3.5,3.8v0.4h-5.4c0,1.3,1,2.2,2.2,2.2s1.8-0.6,2-1.5L654.9,117.1z
	 M653.5,114.8c0-1-0.7-1.8-2-1.8c-1.2,0-1.9,0.9-2,1.8H653.5z M659.3,115.1l1.9-0.3c0.4-0.1,0.6-0.3,0.6-0.5c0-0.7-0.5-1.3-1.6-1.3
	c-1,0-1.5,0.6-1.6,1.5l-1.4-0.3c0.2-1.4,1.4-2.3,3-2.3c2.2,0,3,1.2,3,2.6v3.6c0,0.6,0.1,1,0.1,1.2h-1.4c0-0.2-0.1-0.5-0.1-1
	c-0.3,0.5-1,1.2-2.3,1.2c-1.5,0-2.4-1-2.4-2.2C657.1,116,658,115.2,659.3,115.1L659.3,115.1z M661.8,116.1v-0.3l-2.2,0.3
	c-0.6,0.1-1.1,0.4-1.1,1.1c0,0.5,0.4,1,1.2,1C660.8,118.2,661.8,117.7,661.8,116.1z M668,112h1.6v1.3H668v3.8c0,0.7,0.3,1,1,1
	c0.2,0,0.4,0,0.6-0.1v1.2c-0.1,0-0.5,0.1-1,0.1c-1.2,0-2-0.8-2-2.1v-4h-1.4V112h0.4c0.8,0,1.1-0.5,1.1-1.1v-1.2h1.3L668,112L668,112
	z M674.8,119.4c-1.7,0-2.7-1.3-2.7-2.9V112h1.4v4.3c0,1,0.4,1.9,1.6,1.9c1.1,0,1.7-0.8,1.7-1.8V112h1.4v5.9c0,0.6,0,1.1,0.1,1.3H677
	c0-0.2-0.1-0.6-0.1-0.9C676.5,119.1,675.6,119.4,674.8,119.4L674.8,119.4z M685.4,113.4h-0.6c-1.2,0-2,0.6-2,2.2v3.6h-1.4V112h1.4
	v1.3c0.5-1.1,1.4-1.4,2.2-1.4h0.5v1.5H685.4z M693.9,117.1c-0.4,1.3-1.6,2.3-3.2,2.3c-1.9,0-3.6-1.4-3.6-3.9c0-2.3,1.6-3.8,3.4-3.8
	c2.2,0,3.5,1.5,3.5,3.8v0.4h-5.4c0,1.3,1,2.2,2.2,2.2s1.8-0.6,2-1.5L693.9,117.1z M692.5,114.8c0-1-0.7-1.8-2-1.8
	c-1.2,0-1.9,0.9-2,1.8H692.5z"/>
<path class="st7" d="M667.1,184v-23.5 M678,175.3l-10.9,10.9l-10.9-10.9 M564.2,175.6l-7.3,13.5l-13.5-7.3 M556.8,188.8
	c-10-41.9-47.7-73.2-92.7-73.2"/>
<path class="st1" d="M259.2,104.9c0-3.6,2.6-5.5,5.3-5.5c2.4,0,4.1,1.3,4.7,3.4l-1.4,0.5c-0.4-1.6-1.6-2.5-3.3-2.5
	c-1.9,0-3.8,1.4-3.8,4.2s1.8,4.2,3.8,4.2c1.8,0,3-1.1,3.4-2.5l1.3,0.5c-0.6,2-2.2,3.4-4.7,3.4C261.7,110.4,259.2,108.4,259.2,104.9z
	 M278.2,106.6c0,2.2-1.5,3.8-3.7,3.8s-3.7-1.6-3.7-3.8c0-2.2,1.5-3.8,3.7-3.8S278.2,104.4,278.2,106.6z M276.8,106.6
	c0-1.7-1.1-2.6-2.2-2.6s-2.2,0.9-2.2,2.6s1.1,2.6,2.2,2.6S276.8,108.3,276.8,106.6z M282.2,110.2h-1.4V103h1.4v1
	c0.5-0.9,1.4-1.2,2.2-1.2c1.7,0,2.6,1.2,2.6,2.9v4.6h-1.4V106c0-1-0.4-1.8-1.7-1.8c-1.1,0-1.7,0.9-1.7,2V110.2z M291.8,103h1.6v1.3
	h-1.6v3.8c0,0.7,0.3,1,1,1c0.2,0,0.4,0,0.6-0.1v1.2c-0.1,0-0.5,0.1-1,0.1c-1.2,0-2-0.8-2-2.1v-4H289V103h0.4c0.8,0,1.1-0.5,1.1-1.1
	v-1.2h1.3V103L291.8,103z M297.7,106.1l1.9-0.3c0.4-0.1,0.6-0.3,0.6-0.5c0-0.7-0.5-1.3-1.6-1.3c-1,0-1.5,0.6-1.6,1.5l-1.4-0.3
	c0.2-1.4,1.4-2.3,3-2.3c2.2,0,3,1.2,3,2.6v3.6c0,0.6,0.1,1,0.1,1.2h-1.4c0-0.2-0.1-0.5-0.1-1c-0.3,0.5-1,1.2-2.3,1.2
	c-1.5,0-2.4-1-2.4-2.2C295.6,107,296.5,106.2,297.7,106.1L297.7,106.1z M300.2,107.1v-0.3l-2.2,0.3c-0.6,0.1-1,0.4-1,1.1
	c0,0.5,0.4,1,1.2,1C299.3,109.2,300.2,108.7,300.2,107.1z M305.3,99.2c0.6,0,1,0.4,1,1s-0.4,1-1,1s-1-0.5-1-1S304.7,99.2,305.3,99.2
	z M304.6,110.2V103h1.4v7.2H304.6z M310.6,110.2h-1.4V103h1.4v1c0.5-0.9,1.4-1.2,2.2-1.2c1.7,0,2.6,1.2,2.6,2.9v4.6H314V106
	c0-1-0.4-1.8-1.7-1.8c-1.1,0-1.7,0.9-1.7,2V110.2z M318.9,107.9c0.1,0.8,0.7,1.3,1.7,1.3c0.8,0,1.2-0.4,1.2-1c0-0.4-0.3-0.8-0.9-0.9
	l-1.2-0.3c-1.1-0.2-1.8-1-1.8-2c0-1.2,1.2-2.3,2.6-2.3c2,0,2.6,1.3,2.7,1.9l-1.2,0.5c-0.1-0.4-0.4-1.2-1.5-1.2c-0.7,0-1.2,0.5-1.2,1
	c0,0.4,0.3,0.8,0.8,0.9l1.2,0.3c1.3,0.3,2,1.1,2,2.1s-0.9,2.2-2.6,2.2c-2,0-2.8-1.3-2.9-2.1L318.9,107.9L318.9,107.9z M332.2,103
	h1.6v1.3h-1.6v3.8c0,0.7,0.3,1,1,1c0.2,0,0.4,0,0.6-0.1v1.2c-0.1,0-0.5,0.1-1,0.1c-1.2,0-2-0.8-2-2.1v-4h-1.4V103h0.4
	c0.8,0,1.1-0.5,1.1-1.1v-1.2h1.3V103L332.2,103z M337.8,110.2h-1.4V99.3h1.4v4.5c0.5-0.8,1.4-1.1,2.2-1.1c1.7,0,2.6,1.2,2.6,2.9v4.6
	h-1.4v-4.3c0-1-0.4-1.8-1.7-1.8c-1.1,0-1.6,0.8-1.7,1.9C337.8,106,337.8,110.2,337.8,110.2z M351.9,108.1c-0.4,1.3-1.6,2.3-3.2,2.3
	c-1.9,0-3.6-1.4-3.6-3.9c0-2.3,1.6-3.8,3.4-3.8c2.2,0,3.5,1.5,3.5,3.8v0.4h-5.4c0,1.3,1,2.2,2.2,2.2s1.8-0.6,2-1.5L351.9,108.1z
	 M350.5,105.8c0-1-0.7-1.8-2-1.8c-1.2,0-1.9,0.9-2,1.8H350.5z M359.8,106.6c0,1.6,1,2.5,2.2,2.5c1.3,0,1.8-0.9,2-1.5l1.2,0.5
	c-0.3,1-1.4,2.2-3.3,2.2c-2.1,0-3.6-1.6-3.6-3.8c0-2.2,1.6-3.8,3.6-3.8c1.9,0,2.9,1.2,3.2,2.3l-1.3,0.5c-0.2-0.7-0.7-1.5-1.9-1.5
	C360.9,104.1,359.8,104.9,359.8,106.6L359.8,106.6z M374.4,106.6c0,2.2-1.5,3.8-3.7,3.8s-3.7-1.6-3.7-3.8c0-2.2,1.5-3.8,3.7-3.8
	S374.4,104.4,374.4,106.6z M373,106.6c0-1.7-1.1-2.6-2.2-2.6s-2.2,0.9-2.2,2.6s1.1,2.6,2.2,2.6S373,108.3,373,106.6z M378.4,110.2
	H377V103h1.4v1c0.5-0.9,1.4-1.2,2.2-1.2c1.7,0,2.6,1.2,2.6,2.9v4.6h-1.4V106c0-1-0.4-1.8-1.7-1.8c-1.1,0-1.7,0.9-1.7,2V110.2z
	 M388,103h1.6v1.3H388v3.8c0,0.7,0.3,1,1,1c0.2,0,0.4,0,0.6-0.1v1.2c-0.1,0-0.5,0.1-1,0.1c-1.2,0-2-0.8-2-2.1v-4h-1.4V103h0.4
	c0.8,0,1.1-0.5,1.1-1.1v-1.2h1.3V103L388,103z M398.4,108.1c-0.4,1.3-1.6,2.3-3.2,2.3c-1.9,0-3.6-1.4-3.6-3.9c0-2.3,1.6-3.8,3.4-3.8
	c2.2,0,3.5,1.5,3.5,3.8v0.4H393c0,1.3,1,2.2,2.2,2.2s1.8-0.6,2-1.5L398.4,108.1z M397,105.8c0-1-0.7-1.8-2-1.8c-1.2,0-1.9,0.9-2,1.8
	H397z M402.4,110.2H401V103h1.4v1c0.5-0.9,1.4-1.2,2.2-1.2c1.7,0,2.6,1.2,2.6,2.9v4.6h-1.4V106c0-1-0.4-1.8-1.7-1.8
	c-1.1,0-1.7,0.9-1.7,2V110.2z M412.1,103h1.6v1.3h-1.6v3.8c0,0.7,0.3,1,1,1c0.2,0,0.4,0,0.6-0.1v1.2c-0.1,0-0.5,0.1-1,0.1
	c-1.2,0-2-0.8-2-2.1v-4h-1.4V103h0.4c0.8,0,1.1-0.5,1.1-1.1v-1.2h1.3V103L412.1,103z M416.9,107.9c0.1,0.8,0.7,1.3,1.7,1.3
	c0.8,0,1.2-0.4,1.2-1c0-0.4-0.3-0.8-0.9-0.9l-1.2-0.3c-1.1-0.2-1.8-1-1.8-2c0-1.2,1.2-2.3,2.6-2.3c2,0,2.6,1.3,2.7,1.9l-1.2,0.5
	c-0.1-0.4-0.4-1.2-1.5-1.2c-0.7,0-1.2,0.5-1.2,1c0,0.4,0.3,0.8,0.8,0.9l1.2,0.3c1.3,0.3,2,1.1,2,2.1s-0.9,2.2-2.6,2.2
	c-2,0-2.8-1.3-2.9-2.1L416.9,107.9L416.9,107.9z M435.1,106.6c0,2.2-1.5,3.8-3.7,3.8s-3.7-1.6-3.7-3.8c0-2.2,1.5-3.8,3.7-3.8
	S435.1,104.4,435.1,106.6z M433.7,106.6c0-1.7-1.1-2.6-2.2-2.6s-2.2,0.9-2.2,2.6s1.1,2.6,2.2,2.6S433.7,108.3,433.7,106.6z
	 M439.6,104.2v5.9h-1.5v-5.9h-1.3V103h1.3v-1.2c0-1.6,1.1-2.5,2.4-2.5c0.5,0,0.8,0.1,0.8,0.2v1.3c-0.1,0-0.3-0.1-0.6-0.1
	c-0.5,0-1.1,0.2-1.1,1.2v1.1h1.7v1.3h-1.7L439.6,104.2z M265.8,121h1.6v1.3h-1.6v3.8c0,0.7,0.3,1,1,1c0.2,0,0.4,0,0.6-0.1v1.2
	c-0.1,0-0.5,0.1-1,0.1c-1.2,0-2-0.7-2-2.1v-4H263V121h0.4c0.8,0,1.1-0.5,1.1-1.1v-1.2h1.3V121L265.8,121z M271.4,128.2H270v-10.9
	h1.4v4.5c0.5-0.8,1.4-1.1,2.2-1.1c1.7,0,2.6,1.2,2.6,2.9v4.6h-1.4v-4.3c0-1-0.4-1.8-1.7-1.8c-1.1,0-1.6,0.8-1.7,1.9V128.2z
	 M285.5,126.1c-0.4,1.3-1.6,2.3-3.2,2.3c-1.9,0-3.6-1.4-3.6-3.9c0-2.3,1.6-3.8,3.4-3.8c2.2,0,3.5,1.5,3.5,3.8v0.4H280
	c0,1.3,1,2.2,2.2,2.2s1.8-0.6,2-1.5L285.5,126.1L285.5,126.1z M284,123.8c0-1-0.7-1.8-2-1.8c-1.2,0-1.9,0.9-2,1.8H284z M294.1,128.2
	v-6.9h-2.4v-1c1.3,0,2.3-0.8,2.5-1.8h1.3v9.7H294.1z M299.2,125.9c0.1,0.8,0.7,1.3,1.7,1.3c0.8,0,1.2-0.4,1.2-1
	c0-0.4-0.3-0.8-0.9-0.9L300,125c-1.1-0.2-1.8-1-1.8-2c0-1.2,1.2-2.3,2.6-2.3c2,0,2.6,1.3,2.7,1.9l-1.2,0.5c-0.1-0.4-0.4-1.2-1.5-1.2
	c-0.7,0-1.2,0.5-1.2,1c0,0.4,0.3,0.8,0.8,0.9l1.2,0.3c1.3,0.3,2,1.1,2,2.1s-0.9,2.2-2.6,2.2c-2,0-2.8-1.3-2.9-2.1L299.2,125.9
	L299.2,125.9z M308,121h1.6v1.3H308v3.8c0,0.7,0.3,1,1,1c0.2,0,0.4,0,0.6-0.1v1.2c-0.1,0-0.5,0.1-1,0.1c-1.2,0-2-0.7-2-2.1v-4h-1.4
	V121h0.4c0.8,0,1.1-0.5,1.1-1.1v-1.2h1.3V121L308,121z M318.4,124.1l1.9-0.3c0.4-0.1,0.6-0.3,0.6-0.5c0-0.7-0.5-1.3-1.6-1.3
	c-1,0-1.5,0.6-1.6,1.5l-1.4-0.3c0.2-1.4,1.4-2.3,3-2.3c2.2,0,3,1.2,3,2.6v3.6c0,0.6,0.1,1,0.1,1.2H321c0-0.2-0.1-0.5-0.1-1
	c-0.3,0.5-1,1.2-2.3,1.2c-1.5,0-2.4-1-2.4-2.2C316.3,125,317.2,124.2,318.4,124.1L318.4,124.1z M321,125.1v-0.3l-2.2,0.3
	c-0.6,0.1-1.1,0.4-1.1,1.1c0,0.5,0.4,1,1.2,1C320,127.2,321,126.7,321,125.1z M326.7,128.2h-1.4V121h1.4v1c0.5-0.9,1.4-1.2,2.2-1.2
	c1.7,0,2.6,1.2,2.6,2.9v4.6h-1.4V124c0-1-0.4-1.8-1.7-1.8c-1.1,0-1.7,0.9-1.7,2V128.2z M339.5,127.1c-0.3,0.7-1.1,1.3-2.2,1.3
	c-2.1,0-3.4-1.7-3.4-3.8c0-2,1.4-3.8,3.4-3.8c1.3,0,2,0.6,2.2,1.2v-4.7h1.4v9.5c0,0.7,0.1,1.2,0.1,1.3h-1.4
	C339.6,127.9,339.5,127.6,339.5,127.1z M337.4,127.1c1.3,0,2.1-1.1,2.1-2.6s-0.8-2.5-2.1-2.5s-2.1,1-2.1,2.5
	S336.1,127.1,337.4,127.1z M348,121.8v-0.4c0-1.7,1.2-3.1,3.4-3.1c2.1,0,3.3,1.4,3.3,3c0,1.3-0.7,2.3-1.8,3l-1.9,1.2
	c-0.6,0.4-1.1,0.8-1.2,1.4h5v1.4H348c0-1.6,0.7-2.8,2.3-3.9l1.6-1.1c0.9-0.6,1.3-1.3,1.3-2c0-0.9-0.6-1.7-1.8-1.7
	c-1.3,0-1.9,0.9-1.9,2v0.4L348,121.8z M358.6,128.2h-1.4V121h1.4v1c0.5-0.9,1.4-1.2,2.2-1.2c1.7,0,2.6,1.2,2.6,2.9v4.6H362V124
	c0-1-0.4-1.8-1.7-1.8c-1.1,0-1.7,0.9-1.7,2V128.2z M371.5,127.1c-0.3,0.7-1.1,1.3-2.2,1.3c-2.1,0-3.4-1.7-3.4-3.8
	c0-2,1.4-3.8,3.4-3.8c1.3,0,2,0.6,2.2,1.2v-4.7h1.4v9.5c0,0.7,0.1,1.2,0.1,1.3h-1.4C371.6,127.9,371.5,127.6,371.5,127.1z
	 M369.4,127.1c1.3,0,2.1-1.1,2.1-2.6s-0.8-2.5-2.1-2.5s-2.1,1-2.1,2.5S368,127.1,369.4,127.1z M381.3,124.6c0,1.6,1,2.5,2.2,2.5
	c1.3,0,1.8-0.9,2-1.5l1.2,0.5c-0.3,1-1.4,2.2-3.3,2.2c-2.1,0-3.6-1.6-3.6-3.8c0-2.2,1.6-3.8,3.6-3.8c1.9,0,2.9,1.2,3.2,2.3l-1.3,0.5
	c-0.2-0.7-0.7-1.5-1.9-1.5C382.4,122.1,381.3,122.9,381.3,124.6L381.3,124.6z M395.9,124.6c0,2.2-1.5,3.8-3.7,3.8s-3.7-1.6-3.7-3.8
	c0-2.2,1.5-3.8,3.7-3.8S395.9,122.4,395.9,124.6z M394.5,124.6c0-1.7-1.1-2.6-2.2-2.6s-2.2,0.9-2.2,2.6s1.1,2.6,2.2,2.6
	S394.5,126.3,394.5,124.6z M398.4,128.2V121h1.3v1c0.5-0.8,1.4-1.2,2.2-1.2c0.9,0,1.8,0.4,2.2,1.4c0.6-1,1.5-1.4,2.4-1.4
	c1.3,0,2.5,0.9,2.5,2.7v4.7h-1.4v-4.5c0-0.9-0.5-1.6-1.5-1.6s-1.7,0.8-1.7,1.8v4.4H403v-4.5c0-0.9-0.4-1.6-1.5-1.6
	c-1,0-1.7,0.8-1.7,1.8v4.3h-1.4V128.2z M412,128.2V121h1.3v1c0.5-0.8,1.4-1.2,2.2-1.2c0.9,0,1.8,0.4,2.2,1.4c0.6-1,1.5-1.4,2.4-1.4
	c1.3,0,2.5,0.9,2.5,2.7v4.7h-1.4v-4.5c0-0.9-0.5-1.6-1.5-1.6s-1.7,0.8-1.7,1.8v4.4h-1.4v-4.5c0-0.9-0.4-1.6-1.5-1.6
	c-1,0-1.7,0.8-1.7,1.8v4.3H412V128.2z M426.3,117.2c0.6,0,1,0.4,1,1s-0.4,1-1,1s-1-0.5-1-1S425.8,117.2,426.3,117.2z M425.7,128.2
	V121h1.4v7.2H425.7z M432.1,121h1.6v1.3h-1.6v3.8c0,0.7,0.3,1,1,1c0.2,0,0.4,0,0.6-0.1v1.2c-0.1,0-0.5,0.1-1,0.1c-1.2,0-2-0.7-2-2.1
	v-4h-1.4V121h0.4c0.8,0,1.1-0.5,1.1-1.1v-1.2h1.3V121L432.1,121z M436.9,125.9c0.1,0.8,0.7,1.3,1.7,1.3c0.8,0,1.2-0.4,1.2-1
	c0-0.4-0.3-0.8-0.9-0.9l-1.2-0.3c-1.1-0.2-1.8-1-1.8-2c0-1.2,1.2-2.3,2.6-2.3c2,0,2.6,1.3,2.7,1.9l-1.2,0.5
	c-0.1-0.4-0.4-1.2-1.5-1.2c-0.7,0-1.2,0.5-1.2,1c0,0.4,0.3,0.8,0.8,0.9l1.2,0.3c1.3,0.3,2,1.1,2,2.1s-0.9,2.2-2.6,2.2
	c-2,0-2.8-1.3-2.9-2.1L436.9,125.9L436.9,125.9z"/>
<g>
	<path d="M378.4,438.7v-10h2l2.4,7.1c0.2,0.7,0.4,1.2,0.5,1.5c0.1-0.4,0.3-0.9,0.5-1.6l2.4-7h1.8v10h-1.3v-8.4l-2.9,8.4h-1.2
		l-2.9-8.5v8.5H378.4z"/>
	<path d="M395.3,437.8c-0.5,0.4-0.9,0.7-1.3,0.8c-0.4,0.2-0.9,0.2-1.4,0.2c-0.8,0-1.4-0.2-1.8-0.6c-0.4-0.4-0.6-0.9-0.6-1.5
		c0-0.4,0.1-0.7,0.2-1c0.2-0.3,0.4-0.5,0.6-0.7c0.3-0.2,0.6-0.3,0.9-0.4c0.2-0.1,0.6-0.1,1.1-0.2c1-0.1,1.7-0.3,2.2-0.4
		c0-0.2,0-0.3,0-0.3c0-0.5-0.1-0.9-0.3-1.1c-0.3-0.3-0.8-0.4-1.4-0.4c-0.6,0-1,0.1-1.3,0.3c-0.3,0.2-0.5,0.6-0.6,1.1l-1.2-0.2
		c0.1-0.5,0.3-0.9,0.5-1.2c0.3-0.3,0.6-0.6,1.1-0.7c0.5-0.2,1-0.3,1.6-0.3c0.6,0,1.1,0.1,1.5,0.2s0.7,0.3,0.9,0.6
		c0.2,0.2,0.3,0.5,0.4,0.8c0,0.2,0.1,0.6,0.1,1.1v1.6c0,1.1,0,1.9,0.1,2.2c0.1,0.3,0.2,0.6,0.3,0.9h-1.3
		C395.5,438.5,395.4,438.2,395.3,437.8z M395.2,435.1c-0.4,0.2-1.1,0.3-2,0.5c-0.5,0.1-0.9,0.2-1.1,0.2s-0.4,0.2-0.5,0.4
		c-0.1,0.2-0.2,0.4-0.2,0.6c0,0.3,0.1,0.6,0.4,0.8c0.2,0.2,0.6,0.3,1.1,0.3c0.5,0,0.9-0.1,1.3-0.3c0.4-0.2,0.6-0.5,0.8-0.9
		c0.1-0.3,0.2-0.7,0.2-1.2V435.1z"/>
	<path d="M399.1,430.1v-1.4h1.2v1.4H399.1z M399.1,438.7v-7.3h1.2v7.3H399.1z"/>
	<path d="M402.9,438.7v-7.3h1.1v1c0.5-0.8,1.3-1.2,2.3-1.2c0.4,0,0.8,0.1,1.2,0.2c0.4,0.2,0.6,0.4,0.8,0.6s0.3,0.6,0.4,0.9
		c0,0.2,0.1,0.6,0.1,1.2v4.5h-1.2v-4.4c0-0.5,0-0.9-0.1-1.1c-0.1-0.2-0.3-0.4-0.5-0.6c-0.2-0.1-0.5-0.2-0.9-0.2
		c-0.5,0-1,0.2-1.4,0.5c-0.4,0.3-0.6,1-0.6,1.9v4H402.9z"/>
</g>
</svg>
